<svg xmlns="http://www.w3.org/2000/svg" width="1024" height="1024" viewBox="0 0 1024 1024">
  <defs>
    <linearGradient id="bg" x1="0" y1="0" x2="0" y2="1">
      <stop offset="0" stop-color="#4A88F4"/>
      <stop offset="1" stop-color="#1F4FA3"/>
    </linearGradient>
    <radialGradient id="gold" cx="0.42" cy="0.34" r="0.78">
      <stop offset="0" stop-color="#FBDD83"/>
      <stop offset="0.55" stop-color="#E8B44E"/>
      <stop offset="1" stop-color="#B87C26"/>
    </radialGradient>
    <radialGradient id="sheen" cx="0.5" cy="0.30" r="0.62">
      <stop offset="0" stop-color="#ffffff" stop-opacity="0.5"/>
      <stop offset="0.62" stop-color="#ffffff" stop-opacity="0"/>
    </radialGradient>
    <filter id="soft" x="-25%" y="-25%" width="150%" height="150%">
      <feGaussianBlur stdDeviation="16"/>
    </filter>
  </defs>

  <rect x="0" y="0" width="1024" height="1024" rx="232" ry="232" fill="url(#bg)"/>
  <rect x="0" y="0" width="1024" height="1024" rx="232" ry="232" fill="url(#sheen)" opacity="0.55"/>

  <ellipse cx="512" cy="566" rx="298" ry="298" fill="#0e1f44" opacity="0.38" filter="url(#soft)"/>

  <circle cx="512" cy="512" r="300" fill="url(#gold)"/>
  <circle cx="512" cy="512" r="300" fill="none" stroke="#8f5e1c" stroke-width="6" opacity="0.55"/>
  <circle cx="512" cy="512" r="276" fill="none" stroke="#ffffff" stroke-width="10" opacity="0.22"/>
  <circle cx="512" cy="512" r="260" fill="none" stroke="#7d4f16" stroke-width="6" opacity="0.32"/>
  <circle cx="512" cy="512" r="300" fill="url(#sheen)"/>

  <path fill="#ffffff" fill-rule="evenodd" d="
    M 462 372 L 562 372 Q 596 372 590 410 L 576 476 Q 564 574 532 646 L 512 720 L 492 646 Q 460 574 448 476 L 434 410 Q 428 372 462 372 Z
    M 512 452 m -24 0 a 24 24 0 1 0 48 0 a 24 24 0 1 0 -48 0 Z
    M 502 500 L 522 500 L 515 702 L 509 702 Z
  "/>
</svg>
